<?xml version="1.0" encoding="UTF-8" standalone="no"?><!DOCTYPE svg PUBLIC "-//W3C//DTD SVG 1.1//EN" "http://www.w3.org/Graphics/SVG/1.1/DTD/svg11.dtd"><svg width="100%" height="100%" viewBox="0 0 1380 654" version="1.1" xmlns="http://www.w3.org/2000/svg" xmlns:xlink="http://www.w3.org/1999/xlink" xml:space="preserve" xmlns:serif="http://www.serif.com/" style="fill-rule:evenodd;clip-rule:evenodd;stroke-linecap:round;stroke-linejoin:round;stroke-miterlimit:1.5;"><g><g><path d="M1146.71,450.459c3.048,-1.016 -29.581,39.934 -27.425,62.976c5.418,57.898 122.906,101.575 122.906,101.575c-0,-0 -11.313,-36.044 -7.11,-50.28c2.444,-8.282 25.43,-16.936 33.519,-50.279c10.074,-41.527 -33.012,-63.992 -33.012,-63.992" style="fill:none;stroke:#fff;stroke-width:20px;"/><path d="M1193.89,44.652c81.676,0 147.986,63.975 147.986,142.775c-0,53.23 -30.259,99.695 -75.072,124.245c-14.939,8.184 -11.444,50.717 -31.698,76.256c-8.931,11.261 -24.511,7.03 -46.294,7.281c-21.151,0.244 -32.529,3.526 -41.789,-9.181c-19.446,-26.683 -20.596,-70.124 -36.71,-80.79c-38.883,-25.739 -64.408,-68.922 -64.408,-117.811c0,-78.8 66.31,-142.775 147.985,-142.775Z" style="fill:none;stroke:#fff;stroke-width:20px;"/><path d="M1146.42,386.224l1.408,65.593l87.053,-0.053l1.893,-65.319" style="fill:none;stroke:#fff;stroke-width:20px;"/><path d="M1178.2,395.785l-36.855,-138.318c-0,-0 34.699,20.51 51.536,20.341c16.836,-0.169 49.482,-21.357 49.482,-21.357l-35.722,139.334" style="fill:none;stroke:#fff;stroke-width:20px;"/><path d="M1242.19,615.01c0.981,-5.617 -43.952,-36.454 -51.838,-70.625c-6.094,-26.409 5.418,-34.535 8.126,-51.803" style="fill:none;stroke:#fff;stroke-width:20px;"/></g><g><path d="M101.954,354.629c-0,13.636 0.346,34.147 1.04,61.534c0.693,27.387 1.04,47.899 1.04,61.535c-0,2.311 -0.52,3.755 -1.56,4.333c-0.231,0.116 -1.734,0.347 -4.507,0.693c-7.511,0.925 -17.565,1.387 -30.161,1.387c-16.871,0 -27.618,-0.462 -32.24,-1.387c-3.351,-0.693 -5.027,-2.484 -5.027,-5.373c0,1.849 0.52,-8.32 1.56,-30.507c2.08,-46.801 3.12,-77.539 3.12,-92.215c0,-12.365 -0.404,-30.912 -1.213,-55.641c-0.809,-24.729 -1.213,-43.276 -1.213,-55.641c-0,-2.542 1.328,-3.813 3.986,-3.813c3.583,-0 8.985,0.173 16.207,0.52c7.223,0.346 12.625,0.52 16.207,0.52c3.582,-0 8.869,-0.174 15.86,-0.52c6.992,-0.347 12.278,-0.52 15.861,-0.52c3.351,-0 5.026,1.271 5.026,3.813c0,12.365 -0.664,30.912 -1.993,55.641c-1.329,24.729 -1.993,43.276 -1.993,55.641Z" style="fill:none;fill-rule:nonzero;stroke:#fff;stroke-width:20px;stroke-linecap:butt;stroke-miterlimit:2;"/><path d="M319.837,236.76c0,-2.542 -0.462,1.271 -1.386,11.44c-1.271,12.827 -2.254,29.236 -2.947,49.228c-0.924,22.649 -1.387,48.419 -1.387,77.308c0,47.725 1.329,81.699 3.987,101.922c0.231,2.195 0.347,3.582 0.347,4.16c-0,1.271 -0.867,2.022 -2.6,2.253c-4.16,0.578 -19.472,0.867 -45.934,0.867c-6.241,-0 -9.823,-1.214 -10.747,-3.64c-0.231,-4.391 -0.463,-8.783 -0.694,-13.174c-0.115,-0.924 -0.577,-1.849 -1.386,-2.773c-0.694,0.346 -1.56,1.04 -2.6,2.08c-12.481,12.249 -28.081,18.373 -46.801,18.373c-24.383,0 -43.912,-8.551 -58.588,-25.653c-13.982,-16.294 -20.974,-36.863 -20.974,-61.708c0,-25.192 6.876,-45.934 20.628,-62.228c14.56,-17.333 34.205,-26 58.934,-26c17.449,-0 31.027,5.547 40.734,16.64c1.618,1.849 2.773,2.773 3.467,2.773c1.04,0 1.56,-1.502 1.56,-4.506c-0,-8.898 -0.231,-22.187 -0.694,-39.868c-0.462,-17.68 -0.693,-30.911 -0.693,-39.694c-0,-3.351 0.924,-5.257 2.773,-5.72c7.396,-0.346 17.565,-1.04 30.507,-2.08c23.112,-2.889 33.339,-4.333 30.681,-4.333c2.542,-0 3.813,1.444 3.813,4.333Zm-65.347,159.296c-0,-9.129 -3.178,-17.131 -9.534,-24.007c-6.356,-6.875 -14.04,-10.313 -23.054,-10.313c-9.475,-0 -17.015,3.438 -22.62,10.313c-5.605,6.876 -8.407,15.109 -8.407,24.701c0,9.36 2.831,17.275 8.494,23.747c5.778,6.933 13.289,10.4 22.533,10.4c9.245,-0 16.987,-3.467 23.227,-10.4c6.241,-6.934 9.361,-15.081 9.361,-24.441Z" style="fill:none;fill-rule:nonzero;stroke:#fff;stroke-width:20px;stroke-linecap:butt;stroke-miterlimit:2;"/><path d="M504.267,388.603c0,11.671 -3.755,18.316 -11.267,19.934c-1.271,0.231 -13.231,1.502 -35.88,3.813c-13.636,1.502 -33.974,3.293 -61.015,5.373c1.618,7.512 6.529,13.232 14.734,17.161c6.702,3.235 14.329,4.853 22.88,4.853c10.285,0 20.627,-2.773 31.028,-8.32c4.391,-2.773 8.782,-5.547 13.173,-8.32c2.427,1.155 6.5,7.049 12.22,17.68c5.72,10.631 8.58,17.391 8.58,20.28c0,0.809 -0.866,2.138 -2.6,3.987c-14.098,15.138 -35.996,22.707 -65.694,22.707c-27.503,0 -49.69,-8.031 -66.561,-24.094c-17.334,-16.293 -26.001,-38.076 -26.001,-65.347c0,-26.579 7.743,-48.361 23.227,-65.348c15.947,-17.565 37.094,-26.347 63.442,-26.347c22.187,-0 41.022,8.089 56.507,24.267c15.485,16.178 23.227,35.418 23.227,57.721Zm-60.667,-10.574c-0,-7.164 -2.543,-13.462 -7.627,-18.893c-5.085,-5.432 -11.152,-8.147 -18.201,-8.147c-7.28,-0 -13.289,3.062 -18.027,9.187c-4.391,5.662 -6.586,12.307 -6.586,19.933c-0,3.12 1.617,4.68 4.853,4.68c8.551,0 21.84,-1.328 39.867,-3.986c3.814,-0.578 5.721,-1.503 5.721,-2.774Z" style="fill:none;fill-rule:nonzero;stroke:#fff;stroke-width:20px;stroke-linecap:butt;stroke-miterlimit:2;"/><path d="M753.178,478.391c0,2.08 -1.444,3.525 -4.333,4.333c-3.467,0.925 -14.214,1.387 -32.241,1.387c-16.525,0 -27.156,-0.462 -31.894,-1.387c-3.929,-0.808 -6.413,-3.409 -7.453,-7.8c-3.929,-16.64 -6.991,-25.538 -9.187,-26.693c-1.849,-0.809 -17.334,-1.214 -46.454,-1.214c-19.645,0 -30.103,0.52 -31.374,1.56c-1.964,1.849 -4.16,8.031 -6.587,18.547c-2.195,9.591 -4.853,14.792 -7.973,15.6c-3.929,0.925 -17.103,1.387 -39.521,1.387c-17.68,0 -26.52,-1.675 -26.52,-5.027c-0,-3.004 13.058,-39.925 39.174,-110.762c28.311,-76.614 43.68,-118.735 46.107,-126.362c1.387,-4.391 3.005,-6.586 4.854,-6.586c3.12,-0 7.944,0.288 14.473,0.866c6.529,0.578 11.411,0.867 14.647,0.867c3.12,-0 7.713,-0.202 13.78,-0.607c6.067,-0.404 10.603,-0.606 13.607,-0.606c2.196,-0 4.218,1.906 6.067,5.72c5.662,12.133 22.187,53.734 49.574,124.802c27.503,71.53 41.254,108.855 41.254,111.975Zm-122.895,-157.909c-2.427,5.084 -6.529,16.12 -12.307,33.107c-6.24,18.027 -9.36,28.6 -9.36,31.72c-0,2.08 3.466,3.236 10.4,3.467c3.582,0.231 9.476,0.347 17.68,0.347c7.627,-0 11.845,-0.925 12.654,-2.774c0.231,-0.577 0.346,-1.386 0.346,-2.426c0,-3.814 -2.657,-14.329 -7.973,-31.547c-5.2,-16.641 -9.014,-27.272 -11.44,-31.894Z" style="fill:none;fill-rule:nonzero;stroke:#fff;stroke-width:20px;stroke-linecap:butt;stroke-miterlimit:2;"/><path d="M884.567,374.736c0,4.507 -2.484,6.76 -7.453,6.76c-2.196,0 -5.403,-0.144 -9.621,-0.433c-4.217,-0.289 -7.366,-0.434 -9.446,-0.434c-9.592,0 -16.121,1.503 -19.587,4.507c-3.467,3.005 -5.201,9.071 -5.201,18.2c0,4.969 0.087,12.51 0.26,22.621c0.174,10.111 0.26,17.651 0.26,22.62c0,3.351 0.232,8.349 0.694,14.994c0.462,6.644 0.693,11.584 0.693,14.82c0,2.773 -1.907,4.333 -5.72,4.68c-5.547,0.462 -14.04,0.693 -25.48,0.693c-10.978,0 -19.761,-0.346 -26.347,-1.04c-3.814,-0.462 -5.721,-2.368 -5.721,-5.72c0,-9.244 0.058,-23.082 0.174,-41.514c0.115,-18.431 0.173,-32.269 0.173,-41.514c0,-27.156 -2.484,-49.516 -7.453,-67.081c-0.231,-1.04 -0.347,-1.907 -0.347,-2.6c-0,-1.733 0.867,-2.889 2.6,-3.467c6.356,-0.693 15.658,-1.964 27.907,-3.813c18.258,-3.582 27.676,-5.373 28.254,-5.373c2.08,-0 3.409,3.64 3.987,10.92c0.578,7.28 1.618,10.92 3.12,10.92c-1.618,-0 3.12,-3.033 14.213,-9.1c11.094,-6.067 21.783,-9.1 32.068,-9.1c6.471,-0 9.706,1.386 9.706,4.16c0,3.351 -0.346,8.089 -1.04,14.213c-0.693,6.587 -1.097,11.325 -1.213,14.214c0,3.351 0.058,7.8 0.173,13.347c0.231,6.818 0.347,11.324 0.347,13.52Z" style="fill:none;fill-rule:nonzero;stroke:#fff;stroke-width:20px;stroke-linecap:butt;stroke-miterlimit:2;"/><path d="M1020.81,431.937c0,3.467 -0.433,8.724 -1.3,15.774c-0.866,7.049 -1.3,12.22 -1.3,15.513c0,3.293 -0.346,5.402 -1.04,6.327c-0.693,0.924 -2.6,2.253 -5.72,3.987c-14.907,8.204 -31.431,12.306 -49.574,12.306c-33.396,0 -50.094,-12.769 -50.094,-38.307c-0,-7.627 0.289,-19.096 0.867,-34.407c0.577,-15.311 0.866,-26.781 0.866,-34.407c0,-5.085 -2.947,-7.627 -8.84,-7.627l-2.253,-0c-1.04,0.115 -1.791,0.173 -2.254,0.173c-4.391,0 -6.586,-1.56 -6.586,-4.68c-0,-1.849 0.144,-4.68 0.433,-8.493c0.289,-3.814 0.433,-6.645 0.433,-8.494c0,-2.427 -0.144,-6.124 -0.433,-11.093c-0.289,-4.969 -0.433,-8.667 -0.433,-11.094c-0,-2.311 3.697,-3.582 11.093,-3.813c4.16,-0.116 6.413,-1.271 6.76,-3.467c0.693,-4.391 0.925,-11.325 0.693,-20.8c-0.462,-14.907 -0.693,-22.014 -0.693,-21.321c0,-13.404 1.271,-20.107 3.814,-20.107c3.12,0 7.569,0.694 13.346,2.08c6.587,1.503 11.152,2.369 13.694,2.6c5.893,0.809 14.791,1.907 26.694,3.294c2.889,0.231 4.333,1.213 4.333,2.946c0,4.623 -0.375,11.614 -1.126,20.974c-0.752,9.36 -1.127,16.409 -1.127,21.147c-0,5.662 1.675,8.494 5.027,8.494c4.044,-0 10.169,-0.174 18.373,-0.52c8.205,-0.347 14.387,-0.52 18.547,-0.52c2.542,-0 3.814,0.866 3.814,2.6c-0,2.658 -0.289,6.644 -0.867,11.96c-0.578,5.316 -0.867,9.302 -0.867,11.96c0,2.773 0.058,6.818 0.174,12.134c0.115,5.315 0.173,9.36 0.173,12.133c-0,2.427 -1.676,3.64 -5.027,3.64c-2.311,0 -6.182,-0.086 -11.613,-0.26c-5.432,-0.173 -9.303,-0.26 -11.614,-0.26l-13,0c-1.733,0 -2.6,2.542 -2.6,7.627l-0,12.307c0.115,5.547 0.173,9.649 0.173,12.307c0,9.707 1.098,16.409 3.294,20.107c3.12,4.969 9.244,7.453 18.373,7.453c2.889,0 7.02,-0.664 12.394,-1.993c5.373,-1.329 9.158,-1.993 11.353,-1.993c2.427,-0 3.64,1.271 3.64,3.813Z" style="fill:none;fill-rule:nonzero;stroke:#fff;stroke-width:20px;stroke-linecap:butt;stroke-miterlimit:2;"/></g></g></svg>